<?xml version="1.0" encoding="utf-8"?>
<!-- Svg Vector Icons : http://www.onlinewebfonts.com/icon -->
<!DOCTYPE svg PUBLIC "-//W3C//DTD SVG 1.1//EN" "http://www.w3.org/Graphics/SVG/1.1/DTD/svg11.dtd">
<svg version="1.1" xmlns="http://www.w3.org/2000/svg" xmlns:xlink="http://www.w3.org/1999/xlink" x="0px" y="0px" viewBox="0 0 1000 1000" enable-background="new 0 0 1000 1000" xml:space="preserve">
<metadata> Svg Vector Icons : http://www.onlinewebfonts.com/icon </metadata>
<g><g><g id="_x36__61_"><g><path d="M848.1,196.1h-99.4C717.1,88.6,617.6,10,500,10c-117.6,0-217.1,78.6-248.7,186.1h-99.4c-54,0-97.7,43.8-97.7,97.7L103,892.3c0,54,43.8,97.7,97.7,97.7h598.5c54,0,97.7-43.8,97.7-97.7l48.9-598.5C945.8,239.8,902.1,196.1,848.1,196.1z M500,80.7c104,0,188.6,84.6,188.6,188.5S604,457.8,500,457.8s-188.5-84.6-188.5-188.6C311.5,165.3,396,80.7,500,80.7z"/><path d="M498.4,315.1c9.3,0,17.8-3.1,24.8-8.2l0,0.1c0,0,0.4-0.4,0.5-0.5c3.9-2.9,7.3-6.4,9.9-10.5c26.4-28.2,93.7-101.8,85.7-111.3c-8.7-10.2-109.7,36.7-135.8,49c-1.8,0.7-3.6,1.6-5.3,2.5c-0.4,0.2-0.9,0.4-0.9,0.4l0,0c-12.5,7.3-21.1,20.7-21.1,36.3C456.3,296.2,475.1,315.1,498.4,315.1z"/></g></g></g><g></g><g></g><g></g><g></g><g></g><g></g><g></g><g></g><g></g><g></g><g></g><g></g><g></g><g></g><g></g></g>
</svg>